<svg xmlns="http://www.w3.org/2000/svg" viewBox="0 0 311.21 312.37"><defs><style>.a{fill:#fe0101;}.b{fill:#00c600;}.c{fill:#00ff32;}.d{fill:#00ff2e;}</style></defs><path class="a" d="M116.19,140.14,115,164.65l-14.51-11.42c-1.59,11-3,22-4.63,33.21-4.42-5.8-12.09-16.87-12.09-16.87l-3.62,32.32S66.05,186,65.62,186.16V217c-.38.08-12.32-11.89-17.43-17.38-.51.22-.58,24.1-.58,36.11-7.32-6.18-14.71-13.58-21.09-19l-.29,38.52c-7-6-20.4-18.42-20.4-18.42L2.19,314.58l43.1-.36s117.81-113.18,125-120c4.59,2.48,6.05,4.9,11.05,6.9,4,1,6-3,6-3,3-4,8-14,8-14,10.74,3.52,23.39,3.36,33.25,2.53,35-2.67,53-19.48,64-30.48,0,0,43.62-46.61,4.62-110.61-30-47-76-48-103-35C162.72,25.73,146,54,139.6,87.9c-2.25,12.06-.24,23.82,3.59,35.68-3.75,2.62-7.49,4.4-11,7-5.16,3.82-5.82,4-4,10,.74,2.44,2,7.81,2.66,10.28Z" transform="translate(-2.19 -2.2)"/><path class="b" d="M309,74.05c-3.93-23-15.92-41.18-34.52-55C259.86,8.23,243.06,3.36,225.11,2.3c-7.61-.45-15.17.8-22.56,2.57a87.9,87.9,0,0,0-36.29,18.3,86.21,86.21,0,0,0-22.51,28.91,82.14,82.14,0,0,0-8.42,39.29c.24,7.09.69,14.09,2.45,21,.61,2.42,1.14,4.87,1.65,7.09-6,5.48-17.61,11.75-18.34,14.49-.85,3.16,8.24,11,8.24,11L123.21,151v9.33l-9.47-1-8,20.34s-13,2.65-19.26,4l-2.64,21.48-22,3,.32,18.71L41.81,228,27.28,243,24.39,261.4,3.27,268.91l.55,41.27,39-1.8L168.24,184c7.58,7.14,9.19,8.52,14.61,8.9,4.14-5.68,8.49-12.64,12.9-18.69,1.13.2,2.19.35,3.24.57,4.38.93,8.74,2.5,13.15,2.69,8.88.4,17.78.87,26.67-.79a83.64,83.64,0,0,0,24.42-8.24,90.92,90.92,0,0,0,27.29-22c13.57-16.28,19.64-35.08,20.38-55.81C311.1,85.16,309.92,79.55,309,74.05Zm-57.85,5c-9.6,1-17.33-8.81-17-16.49.41-9.82,7.31-17.33,16.76-17.55,8.92-.2,17.42,7.87,17.38,17A16.84,16.84,0,0,1,251.13,79Z" transform="translate(-2.19 -2.2)"/><path class="c" d="M129.34,144.89c-.42-1.67-.83-3.27-1.15-4.32-1.83-6-1.17-6.17,4-10,3.5-2.59,7.24-4.37,11-7-3.84-11.85-5.85-23.62-3.59-35.67C146,54,162.72,25.72,194.19,10.57c27-13,73-12,103,35a118.68,118.68,0,0,1,10.09,20.64c-5.11-19.37-16.38-34.94-32.82-47.14C259.86,8.23,243.06,3.36,225.11,2.3c-7.61-.45-15.17.8-22.55,2.57a87.78,87.78,0,0,0-36.29,18.3,86.21,86.21,0,0,0-22.51,28.91,82.15,82.15,0,0,0-8.43,39.29c.25,7.09.7,14.09,2.45,21,.62,2.42,1.14,4.87,1.66,7.09-6,5.48-17.62,11.75-18.35,14.49S128,143.71,129.34,144.89Z" transform="translate(-2.19 -2.2)"/><path class="c" d="M130.83,150.85c-.37-1.34-1-3.84-1.49-6l-2.83,2.8Z" transform="translate(-2.19 -2.2)"/><path class="c" d="M92.81,182.34c1.08,1.49,2.13,2.9,3,4.09.24-1.63.46-3.25.69-4.87Z" transform="translate(-2.19 -2.2)"/><path class="c" d="M25.46,254.58l.76.65.05-5.77Z" transform="translate(-2.19 -2.2)"/><path class="c" d="M47.61,235.68c0-2.3,0-5.05,0-8l-5.81.33-1.32,1.35C42.85,231.54,45.23,233.68,47.61,235.68Z" transform="translate(-2.19 -2.2)"/><polygon class="c" points="2.15 266.33 1.08 266.71 1.31 284.18 2.15 266.33"/><path class="c" d="M115,164.65l.26-5.18-1.49-.15-1.31,3.32Z" transform="translate(-2.19 -2.2)"/><path class="c" d="M65.62,217v-9.3l-3.8.52.09,5.38A35.7,35.7,0,0,0,65.62,217Z" transform="translate(-2.19 -2.2)"/><path class="d" d="M176,119.4l3-2.42-8.39-2.47a5.06,5.06,0,0,0,.6-2.76,4.57,4.57,0,0,0-1-2.51c-1.58-2-3.58-2-6-.06l-4.48,3.58,9.55,12,2.35-1.87-3.9-4.9,1.37-1.1Zm-9-3.53-.58.46-3-3.8.86-.69q2.43-1.94,3.7-.33Q169.7,113.7,167,115.87Zm55.5-33.57-4.45-11-1.67,1.33,3.11,7.76-6.67-4.92-2.07,1.65,3.1,7.71L207.12,80l-2.23,1.78,9.56,6.92,2.3-1.84-3.05-7.54,6.48,4.81Zm-58,46.26-6.42-14.49-1.72,1.37L161,126l-8.91-7.16L150,120.5l4.93,10.41-9.18-7-2.36,1.88,12.55,9.6,2.38-1.9-4.62-9.76,8.4,6.74ZM224,33.1a3.13,3.13,0,0,0-2.73-1.27,6.22,6.22,0,0,0-3.5,1.55,12.9,12.9,0,0,0-2.9,3.2l1.3,1.64a8.89,8.89,0,0,1,2.29-2.92c1.33-1.07,2.44-1.06,3.3,0q1.69,2.13-1.55,4.73l-.62.5L220.75,42l.74-.58q3.47-2.77,5.36-.4a2.32,2.32,0,0,1,.52,2,3.27,3.27,0,0,1-1.29,1.93,10.81,10.81,0,0,1-3.49,1.66l1.44,1.8a17.6,17.6,0,0,0,3.61-2.25,6.74,6.74,0,0,0,2.55-3.57,3.92,3.92,0,0,0-.81-3.52c-1.36-1.7-3.23-2-5.62-.83Q225.71,35.22,224,33.1ZM170,47.28l-4.44-5.56-2.4,1.91,10.2,12.78,2.4-1.91-4.47-5.6c-.15-1.63.15-2.75.91-3.36s1.41-.29,2.22.72L178.9,52,181.3,50l-5-6.29a3.74,3.74,0,0,0-2.33-1.5,3.09,3.09,0,0,0-2.48.74A4.48,4.48,0,0,0,170,47.28Zm24.69-7.89,2.4-1.91-4.7-5.89,9.24,2.27,3.12-2.49-10.43-2.49-.13-8.69-2.07,1.66.05,9.46-4.64-5.81-2.39,1.91Zm-42.27,1.17-1-1.28c-.66.93-1.3,1.88-1.92,2.83l.71.23Zm-5.68,100.07a10.48,10.48,0,0,1-3.64,1.69l1.4,1.75a14.39,14.39,0,0,0,3.63-2.09,5.65,5.65,0,0,0,2.08-2.94,3.1,3.1,0,0,0-.58-2.87,2.7,2.7,0,0,0-1.86-1.08,8.14,8.14,0,0,0-3.13.54l-.91.29q-1.44.45-1.92-.15c-.49-.62-.24-1.32.75-2.11a9.66,9.66,0,0,1,2.8-1.41L144,130.57a16.73,16.73,0,0,0-2.83,1.74,5.81,5.81,0,0,0-2.14,2.86,2.93,2.93,0,0,0,.6,2.73,2.79,2.79,0,0,0,1.78,1.07,6.68,6.68,0,0,0,2.81-.36l1.06-.32c1.07-.32,1.78-.27,2.12.16C147.9,139.12,147.67,139.85,146.69,140.63Zm51.4-91,12.54,9.6L213,57.3l-4.61-9.76,8.4,6.74,2.38-1.9-6.42-14.49L211,39.27l4.65,10.55-8.91-7.15-2.08,1.66,4.93,10.41-9.18-7Zm-59.29,67c.14-.17.28-.36.44-.58l-.81-1c.12.53.25,1.06.37,1.59Zm7.06-5.78a5.8,5.8,0,0,0,2.21-3,3.35,3.35,0,0,0-.77-3c-1.32-1.65-3.31-1.85-6-.61,1.44-2.13,1.58-3.91.43-5.36a3,3,0,0,0-2.52-1.23,6,6,0,0,0-3.29,1.52l-.18.14.06.68c.05.61.1,1.22.17,1.83l0,0a5.28,5.28,0,0,1,2.12-1.2,1.52,1.52,0,0,1,1.39.72,2.23,2.23,0,0,1,.5,1.9,3.25,3.25,0,0,1-1.26,1.86l-.59.47-2.08-2.61q.18,1.47.39,2.94l0,.09c.15,1,.31,2,.5,2.93l4.4,5.52ZM140,106.75a4.15,4.15,0,0,1,2.49-1,2.33,2.33,0,0,1,2,.88,1.63,1.63,0,0,1,.39,1.7,6.24,6.24,0,0,1-1.9,2.07l-.54.42-2.94-3.69ZM151.2,54.44l9.57,3.76,4,5,2.49-2-4-5L161.9,45.91l-2,1.57,1,7.5-7-2.73Zm1,35.71A2.93,2.93,0,0,0,149.59,89a5.6,5.6,0,0,0-3.26,1.39,5.75,5.75,0,0,0-2.18,3.14,3.51,3.51,0,0,0,.71,3.13A4.19,4.19,0,0,0,148.79,98c-.87,2.19-.75,4,.38,5.39a3.56,3.56,0,0,0,3.05,1.41,6.53,6.53,0,0,0,3.84-1.6,6.64,6.64,0,0,0,2.49-3.58,3.93,3.93,0,0,0-.79-3.55c-1.07-1.35-2.82-1.79-5.23-1.32C153.12,92.75,153,91.21,152.15,90.15ZM148,95.36a1.78,1.78,0,0,1-1.28-.65,1.46,1.46,0,0,1-.3-1.33,2.85,2.85,0,0,1,2.57-2,1.79,1.79,0,0,1,1.38.72,3.33,3.33,0,0,1,.39,3A12,12,0,0,1,148,95.36Zm6.68,2.11a1.93,1.93,0,0,1,1.24.73,1.89,1.89,0,0,1,.35,1.67,3.28,3.28,0,0,1-3.23,2.37,2.59,2.59,0,0,1-1.89-1,3.85,3.85,0,0,1-.52-3.33l1.62-.26A8.63,8.63,0,0,1,154.66,97.47ZM16.14,302.35l1.19,1.5,7.39-5.9-1.19-1.5ZM165.22,173.48l9.55,12,2.5-2-9.56-12Zm.06,8.12a4.58,4.58,0,0,0-1-2.52c-1.58-2-3.58-2-6-.05l-4.48,3.57,7,8.81,2.15-2.13-1.18-1.47,1.38-1.09,1.74.64,2.29-2.27-2.5-.74A5,5,0,0,0,165.28,181.6ZM161,185.71l-.58.46-3-3.8.86-.69q2.43-1.92,3.7-.32Q163.76,183.55,161,185.71ZM9.1,273.45,3.39,278l0,2.22v0l6.8-5.42ZM170.36,186l.8.74.24.22.68.62h0l1-.79-2.7-.8ZM23.69,273.41,20.1,262.93l-2,.72,2.64,7.71-9-5.44-3.89,1.39,13.4,8.09Zm162-116.23,4.89,15.7,1.82-1.44-1.31-4.2,5-4,3.8,2.2,2.55-2-14.22-8.26Zm8.47,5-3.72,3-2-6.26ZM309.48,76.9c-.07-.41-.14-.81-.22-1.22a8.16,8.16,0,0,1-1.08,1,5,5,0,0,1-4,1.24,6.18,6.18,0,0,1-3.8-2.51,6.46,6.46,0,0,1-1.69-4.23,4.63,4.63,0,0,1,2-3.53,14.68,14.68,0,0,1,4.29-2.16l-1.56-2a22.18,22.18,0,0,0-4.26,2.65,8.2,8.2,0,0,0-3.42,5.4,8,8,0,0,0,2.06,6,8,8,0,0,0,5.34,3.32,7.94,7.94,0,0,0,5.91-2c.27-.22.5-.44.75-.65Zm-79.06,44.57-2.07,1.65.05,9.47-4.63-5.81-2.4,1.91,9.56,12,2.39-1.91-4.7-5.89,9.25,2.27,3.11-2.49-10.42-2.49Zm-13.78,27.81-2.94-3.69,4.09-3.27-1.27-1.6-4.1,3.27-2.67-3.34,5-4L213.44,135,206,141l9.55,12,7.87-6.27L222,145ZM3.46,283.17l0,2.26L12.76,278l-1.11-1.4Zm263.59-269c-1.05-.62-2.12-1.21-3.19-1.77l-.08,0c-1.08-.57-2.18-1.11-3.28-1.63l4.22,5.3Zm-108.83,22A3.9,3.9,0,0,0,159.63,32l3.88,4.87L165.92,35l-5.3-6.65h0c-.73.73-1.45,1.47-2.16,2.23h0l.08.09a3.39,3.39,0,0,1-.95,3,1.89,1.89,0,0,1-2.09.25l-.45.55c-.56.67-1.12,1.33-1.64,2a4.71,4.71,0,0,0,1.35.59A3.84,3.84,0,0,0,158.22,36.22ZM191.37,14a13.13,13.13,0,0,0,3.86-2,6.42,6.42,0,0,0,2.55-3.73,4,4,0,0,0-.16-2h0c-1,.29-1.91.59-2.85.91h0A2.38,2.38,0,0,1,195,8.4a3.48,3.48,0,0,1-1.46,2.1,8.7,8.7,0,0,1-3.37,1.57Zm17.35,14.2-4.51-5.64c-.15-1.59.13-2.66.84-3.22s1.48-.32,2.33.74l4.48,5.62,2.29-1.84-4.5-5.64c-.14-1.58.14-2.65.86-3.23s1.47-.31,2.31.74l4.49,5.62,2.29-1.83-5.1-6.41q-2.15-2.69-4.58-.74a4.57,4.57,0,0,0-1.52,4.28,2.63,2.63,0,0,0-1.9-.75,3.37,3.37,0,0,0-2,.82A4.19,4.19,0,0,0,203,21l-1.34-1.68-2.3,1.84,7.1,8.89Zm10.7-19q-1.3,3.27.38,5.39a3.59,3.59,0,0,0,3.06,1.4,6.44,6.44,0,0,0,3.83-1.6,6.63,6.63,0,0,0,2.5-3.58,3.94,3.94,0,0,0-.79-3.54c-1.08-1.35-2.82-1.79-5.24-1.32a6,6,0,0,0,.15-3.64h0c-1.74,0-3.49,0-5.23.11l-.55,0-1.62.14a5,5,0,0,0-1.12,2.11,3.5,3.5,0,0,0,.7,3.13A4.21,4.21,0,0,0,219.42,9.13Zm5.87-.55a1.91,1.91,0,0,1,1.24.73,1.88,1.88,0,0,1,.36,1.66,2.9,2.9,0,0,1-1.1,1.66,3,3,0,0,1-2.14.71,2.56,2.56,0,0,1-1.88-1A3.9,3.9,0,0,1,221.24,9l1.62-.26A8.64,8.64,0,0,1,225.29,8.58ZM217,4.49A2.39,2.39,0,0,1,218,3.15a2.44,2.44,0,0,1,1.63-.62,1.74,1.74,0,0,1,1.38.72,3.25,3.25,0,0,1,.39,2.94,11.61,11.61,0,0,1-2.76.28,1.77,1.77,0,0,1-1.28-.66A1.46,1.46,0,0,1,217,4.49ZM145.7,78.43l-6.41-14.49-.35.28h0c-.26.84-.51,1.68-.74,2.53h0l4,9.11L137,71.69c-.22,1-.41,2.06-.59,3.1l6.9,5.54ZM113.8,166.3a7.26,7.26,0,0,0-1.08-4.38l-1,2.46-.91,2.3v.1a4,4,0,0,1-1,2.35l-1.16,3-.56,1.41,2.57-2A7.42,7.42,0,0,0,113.8,166.3ZM37.31,285.46l1.2,1.49,7.39-5.89-1.19-1.5ZM53.1,249a4.25,4.25,0,0,0-.05-2.43,10,10,0,0,0-1.7-2.78l-5.88-7.36-2.16,1.73,6,7.52a5.2,5.2,0,0,1,1.35,2.81,2.64,2.64,0,0,1-1.18,2.15,2.76,2.76,0,0,1-2.47.7,5.41,5.41,0,0,1-2.58-2.05L38.56,242l-2.49,2,5.85,7.34a9,9,0,0,0,2.31,2.2,4.48,4.48,0,0,0,2.44.57,6.92,6.92,0,0,0,4.07-1.71A6.3,6.3,0,0,0,53.1,249ZM139.54,83.34l-3.36-7.09h0c-.18,1.21-.32,2.42-.45,3.64l.42.9-.48-.37h0c-.11,1.16-.2,2.31-.26,3.48l1.75,1.34ZM26.72,293.9l1.2,1.5,7.39-5.9L34.12,288ZM252.63,103.76l-2,1.57,1,7.5-7-2.73-2.75,2.2,9.57,3.75,4,5,2.49-2-4-5ZM74.82,262.4l-2.94-3.69,4.1-3.27-1.28-1.6-4.1,3.26-2.67-3.34,5-4-1.31-1.65-7.49,6,9.56,12,7.87-6.28-1.36-1.7Zm-16.33,6.16,1.2,1.5,7.39-5.9-1.19-1.49Zm3.08-25.37a13.32,13.32,0,0,1-2.17-5.46,42.12,42.12,0,0,1-.81-8.58l-1.54-2-8.2,6.54,1.55,1.94,6.24-5,.45,6.35a44.44,44.44,0,0,0,.6,5.35,9.53,9.53,0,0,0,1.23,2.9ZM47.9,277l1.2,1.5,7.39-5.9-1.19-1.5ZM239.34,39.08A8.71,8.71,0,0,1,236,40.66l1.19,1.89a13.13,13.13,0,0,0,3.86-2,6.42,6.42,0,0,0,2.55-3.73,4,4,0,0,0-.26-2.29,15.17,15.17,0,0,0-2.09-3.13l-5.41-6.79-2.16,1.72.47,1.1a4.57,4.57,0,0,0-3.4.91A4.33,4.33,0,0,0,229,31.79,6.68,6.68,0,0,0,230.65,36a6.48,6.48,0,0,0,3.49,2.47,3.9,3.9,0,0,0,3.46-.82A3.81,3.81,0,0,0,239,33.46l1,1.22a3.12,3.12,0,0,1,.88,2.3A3.49,3.49,0,0,1,239.34,39.08Zm-2.49-3.93q-1.68,1.34-3.76-1.27a5.14,5.14,0,0,1-1.23-2.65,2.11,2.11,0,0,1,.78-2,3.13,3.13,0,0,1,2.6-.47l2.61,3.28A3.37,3.37,0,0,1,236.85,35.15ZM117.38,221.79a4.83,4.83,0,0,0-1.16-4,3.78,3.78,0,0,0-2.89-1.71,6.6,6.6,0,0,0-3.71,1.76l-4.18,3.33,9.56,12,2.45-1.95-3.75-4.7,1-.83A6.6,6.6,0,0,0,117.38,221.79Zm-3,.46a4,4,0,0,1-1.54,2.21l-.49.39-3.19-4,1-.78q2.28-1.81,3.7,0A2.47,2.47,0,0,1,114.42,222.25ZM88.7,185.91l-2.78,2.21-.42,3.44,4.71-3.76ZM97.43,230A7.34,7.34,0,0,0,92,231.89L86.83,236l9.56,12,4.94-3.94a7.45,7.45,0,0,0,3.09-5.14,8.2,8.2,0,0,0-2.11-5.86A7.35,7.35,0,0,0,97.43,230Zm2,12.85-1.86,1.48-6.89-8.64,1.5-1.2A8.05,8.05,0,0,1,94.57,233a3.64,3.64,0,0,1,2.16.06,6.33,6.33,0,0,1,3,2.24,6.2,6.2,0,0,1,1.67,4.08A4.75,4.75,0,0,1,99.39,242.81Zm28.52-28.87,3.14,3.94a5.66,5.66,0,0,1-.91.92,5,5,0,0,1-4,1.22,6.22,6.22,0,0,1-3.8-2.5,6.61,6.61,0,0,1-1.71-4.26,4.68,4.68,0,0,1,2-3.56,15.21,15.21,0,0,1,4.3-2.17l-1.56-1.95a21.31,21.31,0,0,0-4.27,2.65,8.31,8.31,0,0,0-3.44,5.41A9.41,9.41,0,0,0,125,223a8.35,8.35,0,0,0,6.06-2.17c.2-.16.4-.34.6-.52l1.16-1.15a24,24,0,0,0,1.66-2L130.4,212Zm-34-28a7,7,0,0,1-2.3,1.21L93.08,189a11.21,11.21,0,0,0,2.38-1.43,4.91,4.91,0,0,0,2.17-3.31,4.69,4.69,0,0,0-.82-2.72h0l-3.38.71.29.37a4.07,4.07,0,0,1,1,2A1.68,1.68,0,0,1,93.94,186Zm-62,80.85-4.5-5.64c-.15-1.59.13-2.66.84-3.23s1.48-.31,2.32.75l4.48,5.61,2.3-1.83-4.5-5.64c-.15-1.58.14-2.66.86-3.23s1.47-.31,2.31.74L40.53,260l2.3-1.84-5.11-6.4c-1.43-1.79-2.95-2-4.58-.75a4.61,4.61,0,0,0-1.51,4.29,2.68,2.68,0,0,0-1.9-.76,3.36,3.36,0,0,0-2,.83,4.18,4.18,0,0,0-1.5,4.27L24.92,258l-.53,3.38-.42.15,5.67,7.11Zm259-191.31a8.45,8.45,0,0,0-8.86,7.06,9.23,9.23,0,0,0,7.3,9.17A7.33,7.33,0,0,0,295.08,90a7.66,7.66,0,0,0,3.16-5.28,8.1,8.1,0,0,0-2-5.94A8,8,0,0,0,290.91,75.52Zm2.89,12.79a3.69,3.69,0,0,1-3.47.68A8.37,8.37,0,0,1,285,82.24a4,4,0,0,1,5-4,7,7,0,0,1,3.62,2.6A7.15,7.15,0,0,1,295.33,85,3.8,3.8,0,0,1,293.8,88.31Zm12-27h0l-.33.27.69.87C306.07,62.08,306,61.7,305.83,61.32Zm-170,136.77a6.6,6.6,0,0,0-3.71,1.76L128,203.18l9.26,11.6,2.23-2.21-3.23-4,1-.83a6.63,6.63,0,0,0,2.64-3.87,4.83,4.83,0,0,0-1.16-4A3.78,3.78,0,0,0,135.86,198.09Zm1.09,6.19a4,4,0,0,1-1.54,2.21l-.49.39-3.19-4,1-.78q2.28-1.82,3.7,0A2.47,2.47,0,0,1,137,204.28Zm-74,5.26-1.09-1.37h0l0,2.24ZM281.09,97.88l-8.2-10.28-2.5,2,9.56,12,7.89-6.29-1.35-1.7ZM120.88,163.34,118,159.76l-3.49-.36,4.38,5.5Zm58-.72,4.08,11.91L172.08,168l-2.66,2.13,14,8.45,2.51-2-5.28-15.4Zm-27.34,23a6.58,6.58,0,0,0-3.7,1.76l-4.18,3.33,7.9,9.91,2.23-2.21-1.87-2.36,1-.83a6.63,6.63,0,0,0,2.64-3.87,4.83,4.83,0,0,0-1.16-4A3.77,3.77,0,0,0,151.49,185.62Zm1.1,6.19A4.06,4.06,0,0,1,151,194l-.48.39-3.2-4,1-.78c1.51-1.21,2.75-1.22,3.7,0A2.53,2.53,0,0,1,152.59,191.81Zm53-47.84-1.31-1.64-11.08,8.84,1.31,1.64,4.29-3.42L207,159.73l2.5-2-8.25-10.34ZM269.4,99.74c1.44-2.12,1.59-3.91.44-5.35a2.94,2.94,0,0,0-2.53-1.23A6,6,0,0,0,264,94.67L260,97.92l9.55,12,4.45-3.54a5.8,5.8,0,0,0,2.21-3,3.35,3.35,0,0,0-.77-3C274.07,98.71,272.08,98.5,269.4,99.74Zm-2.54.82-.59.48-2.66-3.35.5-.4a5,5,0,0,1,2.12-1.2,1.52,1.52,0,0,1,1.39.72,2.22,2.22,0,0,1,.5,1.9A3.14,3.14,0,0,1,266.86,100.56Zm6.07,3.28a6.14,6.14,0,0,1-1.9,2.06l-.53.43-2.95-3.69.49-.39a4.1,4.1,0,0,1,2.49-1,2.37,2.37,0,0,1,2,.89A1.64,1.64,0,0,1,272.93,103.84ZM81.84,240l6.52,8.19-12.08-3.76-2.19,1.75,9.55,12,2-1.59-6.52-8.18,12,3.78,2.23-1.78-9.55-12ZM183,16.6a12.74,12.74,0,0,0,3.53-4.09l-1.25-1.57-.47.23a10.22,10.22,0,0,1-2.59,3.24,5.07,5.07,0,0,1-4,1.23,4.12,4.12,0,0,1-1-.29q-1.6,1-3.18,2a6.92,6.92,0,0,0,3.13,1.21A7.84,7.84,0,0,0,183,16.6Zm2.1,54.92a6.62,6.62,0,0,0,2.8-.36l1.07-.32c1.07-.32,1.78-.27,2.12.16.53.67.31,1.4-.67,2.18a10.3,10.3,0,0,1-3.64,1.69l1.4,1.75a14.39,14.39,0,0,0,3.63-2.09,5.65,5.65,0,0,0,2.08-2.94,3.1,3.1,0,0,0-.58-2.87,2.7,2.7,0,0,0-1.86-1.08,8.14,8.14,0,0,0-3.13.54l-.91.29q-1.44.45-1.92-.15c-.49-.62-.24-1.32.75-2.11a9.7,9.7,0,0,1,2.79-1.41l-1.34-1.68a16.73,16.73,0,0,0-2.83,1.74,5.81,5.81,0,0,0-2.14,2.86,2.93,2.93,0,0,0,.6,2.73A2.79,2.79,0,0,0,185.12,71.52ZM131,155.28l-5.36-6.71-1.24,1.22-.86.86,5.16,6.47Zm58-46.22-1.36-1.7-5.95,4.75-.94-13.39-1.31-1.64-8.51,6.79,1.31,1.65,5.62-4.49.93,13.4,1.35,1.7Zm-33.68-23a9.24,9.24,0,0,0,7.31,9.17,7.32,7.32,0,0,0,5.72-1.75c.19-.15.47-.4.84-.74a23.83,23.83,0,0,0,6.95-2l.34-2.89a28.22,28.22,0,0,1-5.63,2.74q1.92-4.17-1.34-8.24A8.15,8.15,0,0,0,164.13,79a8.47,8.47,0,0,0-8.88,7.07Zm4.39-3.59a3.75,3.75,0,0,1,3.5-.72,7,7,0,0,1,3.62,2.61,7.13,7.13,0,0,1,1.78,4.15A3.85,3.85,0,0,1,167,91.78a3.71,3.71,0,0,1-3.48.68,8.41,8.41,0,0,1-5.38-6.75A3.79,3.79,0,0,1,159.64,82.46ZM170.25,71.8l4.89,15.7L177,86.06l-1.31-4.2,5-4,3.79,2.21,2.56-2-14.22-8.27Zm8.47,5-3.73,3-1.94-6.26ZM194,110.26l2.45-2-4.15-16.46-1.83,1.45,2.13,8-6.94-4.19-2.58,2.06,10.39,6.26Zm42.29-88.43,4.29-3.42,8.25,10.34,2.5-2-8.25-10.34L247.35,13,246,11.35,235,20.19Zm24-11.18-2.19-1-4,3.2L250.21,8l-2.49,2,9.56,12,2.49-2-4.36-5.46Zm-64.73,42a6.13,6.13,0,0,0-3.78,1.54,12.94,12.94,0,0,0-3,3.5l1.4,1.76a8.85,8.85,0,0,1,2.36-3.33q2.13-1.71,3.63.17c.86,1.07,1.05,3,.57,5.68l-.29,1.65a17,17,0,0,0-.24,3.74v.28l1.51,1.9,8-6.39-1.52-1.89-5.29,4.22a7,7,0,0,1,0-4.13l.3-1.29a12.39,12.39,0,0,0,.38-3.56,4.47,4.47,0,0,0-1-2.35A3.73,3.73,0,0,0,195.56,52.6Zm-11-20.39A2.91,2.91,0,0,0,182,31a6,6,0,0,0-3.29,1.51l-4.08,3.25,9.56,12,4.44-3.54a5.77,5.77,0,0,0,2.22-3,3.38,3.38,0,0,0-.77-3q-2-2.48-6-.61C185.54,35.44,185.68,33.66,184.53,32.21Zm-3,6.18-.59.47-2.67-3.35.5-.4a5.22,5.22,0,0,1,2.12-1.2,1.51,1.51,0,0,1,1.39.72,2.2,2.2,0,0,1,.51,1.9A3.25,3.25,0,0,1,181.56,38.39Zm3.67.69a2.36,2.36,0,0,1,2,.88,1.65,1.65,0,0,1,.38,1.7,6.3,6.3,0,0,1-1.89,2.07l-.54.42-2.94-3.69.48-.39A4.09,4.09,0,0,1,185.23,39.08ZM152.84,72.74l-3.91-4.9,1.38-1.1,6.87,2.53,3-2.42-8.38-2.47a5.12,5.12,0,0,0,.59-2.75,4.49,4.49,0,0,0-1-2.52q-2.37-3-6-.06l-4.49,3.58,9.56,12Zm-4.65-7-.57.46-3-3.8.87-.69c1.61-1.29,2.84-1.39,3.69-.33Q150.9,63.59,148.19,65.74Zm22.48-39.29a5.43,5.43,0,0,0,2.17-3.7,5.25,5.25,0,0,0-1.09-3.81c-.83.59-1.65,1.2-2.46,1.82a2.8,2.8,0,0,1,.22.25,3.39,3.39,0,0,1,.86,2.16,2.23,2.23,0,0,1-.9,1.79,2.37,2.37,0,0,1-2.16.46A4,4,0,0,1,165.26,24c-.78.68-1.57,1.35-2.32,2.05a7.31,7.31,0,0,0,3,1.55A5.35,5.35,0,0,0,170.67,26.45ZM191.81,9.1A4,4,0,0,0,193,7.74h0q-2.58.94-5.07,2a2.8,2.8,0,0,0,.46.16A3.85,3.85,0,0,0,191.81,9.1Zm-68.6,144v7l1.91-1.52Zm6-8.3v0l.06,0-1.26,1.25a4.7,4.7,0,0,0,2.3.94,4.57,4.57,0,0,0,3.53-1,4.51,4.51,0,0,0,1.72-3.61,7,7,0,0,1,1.74,3.86,3.31,3.31,0,0,1-1.3,3,9.63,9.63,0,0,1-3.35,1.65l1.38,1.74a18,18,0,0,0,3.18-1.9,6.45,6.45,0,0,0,2.67-5,9.37,9.37,0,0,0-2.41-6.06,8.66,8.66,0,0,0-4.73-3.35,5.36,5.36,0,0,0-4.74,1.19,5.44,5.44,0,0,0-2.15,3.69c0,.15,0,.3,0,.45C127.48,143.26,128.92,144.53,129.26,144.82Zm0-5.82a2.36,2.36,0,0,1,2.16-.45,4.28,4.28,0,0,1,2.22,1.58,2.94,2.94,0,0,1,.69,2.09,2.44,2.44,0,0,1-1,1.83,2.24,2.24,0,0,1-2,.45,4.21,4.21,0,0,1-2.11-1.54,3.44,3.44,0,0,1-.87-2.18A2.19,2.19,0,0,1,129.27,139ZM232.53,65l-1.12-1.4-9.58,7.65,1.11,1.4Zm2.54,3.19L234,66.77l-9.58,7.65,1.11,1.39Zm.36-61.3L232.31,3c-1.19-.15-2.38-.27-3.57-.38h0l4.7,5.89ZM206.79,95.3a12.91,12.91,0,0,0,3.54-4.09l-1.47-1.84A10.15,10.15,0,0,1,206,93.11a5.07,5.07,0,0,1-4,1.23,6.16,6.16,0,0,1-3.8-2.5,6.47,6.47,0,0,1-1.7-4.23,4.66,4.66,0,0,1,2-3.54,15,15,0,0,1,4.28-2.16l-1.55-2a20.69,20.69,0,0,0-4.26,2.65A8.25,8.25,0,0,0,193.48,88a9.42,9.42,0,0,0,7.4,9.3A7.83,7.83,0,0,0,206.79,95.3Zm37.05,32.29-3-3.69,4.1-3.26L243.71,119l-4.1,3.27L237,119l5-4-1.31-1.64-7.49,6,9.56,12,7.87-6.27-1.36-1.7Z" transform="translate(-2.19 -2.2)"/></svg>